<?xml version="1.0" standalone="no"?>
<!DOCTYPE svg PUBLIC "-//W3C//DTD SVG 1.1//EN" "http://www.w3.org/Graphics/SVG/1.1/DTD/svg11.dtd" >
<!--
2013-9-30: Created.
-->
<svg>
<metadata>
Created by iconfont
</metadata>
<defs>

<font id="iconfont" horiz-adv-x="1024" >
  <font-face
    font-family="iconfont"
    font-weight="500"
    font-stretch="normal"
    units-per-em="1024"
    ascent="896"
    descent="-128"
  />
    <missing-glyph />
    
    <glyph glyph-name="guanlizhilingfuhe1" unicode="&#58891;" d="M560 480l99.2-96-99.2-96 25.6-25.6 115.2 118.4 3.2 3.2v6.4l-115.2 118.4-28.8-28.8z m-118.4 25.6L323.2 384l118.4-121.6 25.6 25.6-99.2 96 99.2 96-25.6 25.6z m35.2-227.2l44.8 220.8 32-6.4-44.8-220.8-32 6.4zM809.6-124.79999999999995c118.4 0 214.4 96 214.4 214.4 0 121.6-96 217.6-214.4 217.6s-214.4-96-214.4-217.6c0-118.4 96-214.4 214.4-214.4m0 384c96 0 169.6-80 169.6-172.8s-76.8-172.8-169.6-172.8-169.6 83.2-169.6 176c0 96 76.8 169.6 169.6 169.6m105.6-89.6c9.6-9.6 9.6-25.6 0-35.2l-118.4-124.8-3.2-3.2c-6.4-9.6-22.4-12.8-35.2-3.2l-3.2 3.2-51.2 54.4c-9.6 9.6-9.6 28.8 0 35.2 9.6 9.6 22.4 9.6 35.2 0l35.2-35.2 105.6 105.6c6.4 12.8 25.6 12.8 35.2 3.2zM432-57.60000000000002c-32 112-147.2 176-259.2 147.2l-86.4 147.2c51.2 51.2 73.6 128 54.4 201.6-9.6 35.2-28.8 67.2-54.4 92.8l86.4 150.4c35.2-9.6 70.4-9.6 105.6 0 70.4 19.2 128 73.6 147.2 147.2h169.6c32-108.8 144-176 256-147.2l86.4-147.2c-51.2-51.2-70.4-121.6-57.6-182.4 28.8-6.4 54.4-16 80-32-22.4 38.4-22.4 89.6 0 131.2 12.8 25.6 35.2 44.8 60.8 60.8l3.2 12.8-137.6 236.8-12.8 3.2c-12.8-6.4-22.4-12.8-35.2-16-76.8-19.2-153.6 25.6-176 99.2-3.2 12.8-3.2 25.6-6.4 38.4l-6.4 9.6h-275.2l-6.4-3.2c-25.6-83.2-60.8-131.2-105.6-144-38.4-12.8-80-6.4-115.2 16l-9.6-6.4L0 521.6l3.2-12.8c35.2-19.2 60.8-51.2 70.4-86.4 16-64-12.8-131.2-70.4-163.2l-3.2-12.8 137.6-236.8 12.8-3.2c67.2 41.6 156.8 19.2 195.2-48 6.4-12.8 12.8-22.4 16-35.2 3.2-12.8 6.4-28.8 6.4-41.6l6.4-6.4H608c-19.2 19.2-35.2 41.6-48 67.2h-128zM758.4 492.8c-12.8 32-32 60.8-57.6 86.4-105.6 105.6-272 105.6-377.6 0-105.6-105.6-105.6-272 0-377.6 57.6-57.6 134.4-83.2 211.2-76.8 3.2 16 6.4 32 12.8 44.8-12.8-3.2-22.4-3.2-35.2-3.2-121.6 0-220.8 99.2-220.8 220.8C291.2 508.8 390.4 608 512 608s220.8-99.2 220.8-220.8c0-16-3.2-28.8-6.4-44.8 16 6.4 32 9.6 48 12.8 6.4 48 3.2 92.8-16 137.6z"  horiz-adv-x="1027" />

    
    <glyph glyph-name="wenben" unicode="&#58970;" d="M812.2 704H532c-11 0-20-9-20-20s9-20 20-20h280.1c11 0 20 9 20 20s-8.9 20-19.9 20zM812.2 487.8H532c-11 0-20-9-20-20s9-20 20-20h280.1c11 0 20 9 20 20s-8.9 20-19.9 20zM812.2 319.9H532c-11 0-20-9-20-20s9-20 20-20h280.1c11 0 20 9 20 20s-8.9 20-19.9 20zM812.2 103.70000000000005H532c-11 0-20-9-20-20s9-20 20-20h280.1c11 0 20 9 20 20s-8.9 20-19.9 20zM833 792c47.8 0 86.8-38.9 86.8-86.8v-642c0-47.8-38.9-86.8-86.8-86.8H191c-47.8 0-86.8 38.9-86.8 86.8v642c0 47.8 38.9 86.8 86.8 86.8h642m0 40H191c-70 0-126.8-56.8-126.8-126.8v-642c0-70 56.8-126.8 126.8-126.8h642c70 0 126.8 56.8 126.8 126.8v642C959.8 775.2 903 832 833 832zM384.6 664c12.9 0 23.5-10.5 23.5-23.5v-129.1c0-12.9-10.5-23.5-23.5-23.5H255.5c-12.9 0-23.5 10.5-23.5 23.5V640.5c0 12.9 10.5 23.5 23.5 23.5h129.1m0 40H255.5c-35 0-63.5-28.4-63.5-63.5v-129.1c0-35 28.4-63.5 63.5-63.5h129.1c35 0 63.5 28.4 63.5 63.5V640.5c0 35-28.4 63.5-63.5 63.5zM384.6 279.79999999999995c12.9 0 23.5-10.5 23.5-23.5v-129.1c0-12.9-10.5-23.5-23.5-23.5H255.5c-12.9 0-23.5 10.5-23.5 23.5V256.29999999999995c0 12.9 10.5 23.5 23.5 23.5h129.1m0 40H255.5c-35 0-63.5-28.4-63.5-63.5v-129.1c0-35 28.4-63.5 63.5-63.5h129.1c35 0 63.5 28.4 63.5 63.5V256.29999999999995c0 35.1-28.4 63.5-63.5 63.5z"  horiz-adv-x="1024" />

    
    <glyph glyph-name="shousuo" unicode="&#58883;" d="M1271.33360985 209.75319435999995H678.21950213C649.39765465 209.75319435999995 626.15422959 234.85609355999998 626.15422959 265.53741516s23.24342507 55.7842208 52.06527254 55.7842208h593.11410773c28.82184748 0 52.06527253-25.1028992 52.06527253-55.7842208s-23.24342507-55.7842208-52.06527253-55.7842208z m0 260.32636374H678.21950213C649.39765465 470.07955811 626.15422959 495.1824573 626.15422959 525.8637789100001s23.24342507 55.7842208 52.06527254 55.78422079h593.11410773c28.82184748 0 52.06527253-25.1028992 52.06527253-55.78422079s-23.24342507-55.7842208-52.06527253-55.7842208z m-3.71894825 251.02899413H356.53049518a55.7842208 55.7842208 0 0 0 0 111.5684416h911.14227521a55.7842208 55.7842208 0 0 0 0-111.5684416z m-706.6001312-511.35535787l-260.32636481 185.94740267 260.32636481 185.94740267z m-204.54214401-139.46055254h911.14227521a55.7842208 55.7842208 0 0 0 0-111.56844158H356.53049518a55.7842208 55.7842208 0 0 0 0 111.56844158z m0 0"  horiz-adv-x="1620" />

    
    <glyph glyph-name="zhankai" unicode="&#58889;" d="M360.6874947 572.43767255h593.17221547c28.82184747 0 52.06527253-25.0447904 52.0652736-55.7842208s-23.24342507-55.7842208-52.0652736-55.7842208H360.6874947C331.86564724 460.86923095 308.62222217 485.97213015 308.62222217 516.6534517499999s23.24342507 55.7842208 52.06527253 55.7842208z m0-260.32636373h593.17221547c28.82184747-0.0581088 52.06527253-25.1028992 52.0652736-55.7842208s-23.24342507-55.7842208-52.0652736-55.7842208H360.6874947C331.86564724 200.54286721999995 308.62222217 225.64576641999997 308.62222217 256.32708802s23.24342507 55.726112 52.06527253 55.726112z m3.71894827-251.02899414h911.14227413a55.7842208 55.7842208 0 0 0 0-111.5684416H364.40644297a55.7842208 55.7842208 0 0 0 0 111.5684416z m706.6001312 511.35535787l260.32636373-185.94740267-260.32636373-185.94740266z m204.54214293 139.46055253H364.40644297a55.7842208 55.7842208 0 0 0 0 111.5684416h911.14227413a55.7842208 55.7842208 0 0 0 0-111.5684416z m0 0"  horiz-adv-x="1620" />

    
    <glyph glyph-name="quanping1" unicode="&#58887;" d="M697.248824 469.543561l214.962598 214.102576L1026.293393 570.080179V896H698.882867l114.081971-113.565957L598.00224 568.345801l99.246584-98.80224zM334.376708 468.052856l100.851959 99.189249L216.739978 782.018365 332.627996 896H0v-327.15252l115.888018 113.981635 218.48869-214.776259zM335.523404 282.861366L116.275028 76.68533 0 186.194849v-314.080179h333.803359L217.528331-18.490482l219.133707 206.176036-101.138634 95.175812zM911.681075 75.366629L696.216797 280.123628l-99.418589-94.559462 215.464278-204.871669-114.325644-108.692497H1026.006719V184.059127l-114.325644-108.692498z"  horiz-adv-x="1026" />

    
    <glyph glyph-name="tuichuquanping" unicode="&#58888;" d="M927.421041 894.570471L713.034621 681.041769 599.258432 794.303328v-325.046236h326.532946l-113.776189 113.261559L1026.401608 796.033058 927.421041 894.570471zM100.581639 896L0 797.076614l217.90306-214.200581-115.577395-113.676122h331.73643V795.475542l-115.577395-113.676123L100.581639 896zM102.297074-128l218.66071 205.623409 115.963369-109.215993V281.645745H104.012508l115.963369-109.101631L1.429529-33.079294l100.867545-94.920706zM712.076837 80.382399L926.963592-123.825776l99.15211 94.306008L811.228948 174.80277l114.019209 108.401161H598.057628v-311.222694l114.019209 108.401162z"  horiz-adv-x="1026" />

    
    <glyph glyph-name="dbarrow-down" unicode="&#58885;" d="M553.9 409.1c0-10.8-4.1-21.5-12.3-29.8L199.2 33.5c-16.4-16.6-43.2-16.7-59.8-0.3-16.6 16.4-16.8 43.2-0.3 59.8l342.39999999 345.8c16.4 16.6 43.2 16.7 59.80000001 0.3 8.4-8.2 12.6-19.1 12.6-30zM899.70000001 66.70000000000005c0-10.8-4.1-21.5-12.30000001-29.8-16.4-16.6-43.2-16.7-59.8-0.3L481.8 379c-16.6 16.4-16.8 43.2-0.30000001 59.8 16.4 16.6 43.2 16.7 59.80000001 0.3L887.1 96.70000000000005c8.4-8.2 12.6-19.1 12.60000001-30zM553.9 705.3c0-10.8-4.1-21.5-12.3-29.8L199.2 329.70000000000005c-16.4-16.6-43.2-16.7-59.8-0.3-16.6 16.4-16.8 43.2-0.3 59.8L481.5 735c16.4 16.6 43.2 16.7 59.8 0.3 8.4-8.2 12.6-19.1 12.6-30zM899.7 362.9c0-10.8-4.1-21.5-12.3-29.8-16.4-16.6-43.2-16.7-59.8-0.3l-345.8 342.4c-16.6 16.4-16.8 43.2-0.3 59.8 16.4 16.6 43.2 16.7 59.8 0.3L887.1 393c8.4-8.3 12.6-19.2 12.6-30.1z"  horiz-adv-x="1024" />

    
    <glyph glyph-name="dbarrow-down1" unicode="&#58886;" d="M470.1 358.9c0 10.8 4.1 21.5 12.3 29.8L824.8 734.5c16.4 16.6 43.2 16.7 59.8 0.3 16.6-16.4 16.8-43.2 0.3-59.8l-342.39999999-345.8c-16.4-16.6-43.2-16.7-59.80000001-0.3-8.4 8.2-12.6 19.1-12.6 30zM124.29999999 701.3c0 10.8 4.1 21.5 12.30000001 29.8 16.4 16.6 43.2 16.7 59.8 0.3L542.2 389c16.6-16.4 16.8-43.2 0.30000001-59.8-16.4-16.6-43.2-16.7-59.80000001-0.3L136.9 671.3c-8.4 8.2-12.6 19.1-12.60000001 30zM470.1 62.700000000000045c0 10.8 4.1 21.5 12.3 29.8L824.8 438.3c16.4 16.6 43.2 16.7 59.8 0.3 16.6-16.4 16.8-43.2 0.3-59.8L542.5 33c-16.4-16.6-43.2-16.7-59.8-0.3-8.4 8.2-12.6 19.1-12.6 30zM124.3 405.1c0 10.8 4.1 21.5 12.3 29.8 16.4 16.6 43.2 16.7 59.8 0.3l345.8-342.4c16.6-16.4 16.8-43.2 0.3-59.8-16.4-16.6-43.2-16.7-59.8-0.3L136.9 375c-8.4 8.3-12.6 19.2-12.6 30.1z"  horiz-adv-x="1024" />

    
    <glyph glyph-name="quanxuan2" unicode="&#59177;" d="M746.32142832 833.74285752L115.03571416 833.67857168C90.28571416 833.67857168 62.45 805.65 62.45 780.96428584v-630.77142832c0-26.67857168 27.83571416-52.58571416 52.58571416-52.71428584h631.28571417c26.03571416 0.12857168 52.58571416 26.03571416 52.58571415 52.71428584V781.02857167c0 24.55714248-26.55 52.65-52.58571415 52.71428585zM665.77142833 576.7285716700001L388.76428584 299.72142833a38.76428584 38.76428584 0 0 0-54.83571416-1e-8L174.5 459.21428584a38.76428584 38.76428584 0 0 0 54.77142832 54.9l132.10714336-132.10714336 249.55714248 249.62142919a38.76428584 38.76428584 0 0 0 54.83571416-54.83571415zM958.78571416 427.26428584v-447.3a42.10714248 42.10714248 0 0 0-42.10714248-42.10714336H334.7a42.10714248 42.10714248 0 0 0 0 84.21428584h539.87142832V427.26428584a42.10714248 42.10714248 0 0 0 84.21428584 0z"  horiz-adv-x="1024" />

    
    <glyph glyph-name="xiala2" unicode="&#58884;" d="M458.80266668 611.377c12.012 12.012 28.315 23.166 43.75999999 19.734 15.44399999 2.574 30.03-9.438 42.042-19.73399999L916.12966667 238.13599999999997c18.876-18.877 18.876-49.766 1e-8-68.642s-49.765-18.877-68.64200001 0l-345.784 355.222-346.642-355.222c-18.876-18.877-49.765-18.877-68.642 0s-18.876 49.765 0 68.642l372.383 373.24z"  horiz-adv-x="1024" />

    
    <glyph glyph-name="30_huaban1fuben114" unicode="&#59087;" d="M748.99999971 834H116C86.00000029 831.00000029 64.99999971 809.99999971 62 780v-632.99999971c2.99999971-27 24.00000029-51.00000029 54-54h632.99999971c27 2.99999971 51.00000029 24.00000029 54 54V780c-6.00000029 29.99999971-27 51.00000029-54 54z m-126-405H230.00000029c-20.99999971 0-38.99999971 15.00000029-39.00000058 45-2.99999971 24.00000029 15.00000029 42.00000029 39.00000058 45h392.99999942c24.00000029-2.99999971 38.99999971-24.00000029 39.00000058-45 2.99999971-20.99999971-15.00000029-42.00000029-39.00000058-45zM962 426.00000029v-450c0-20.99999971-11.99999971-36-33.00000029-42.00000029H334.99999971c-24.00000029 0-42.00000029 18-41.99999942 42.00000029 0 24.00000029 18 42.00000029 41.99999942 41.99999942h543.00000058V426.00000029c0 24.00000029 18 42.00000029 41.99999942 41.99999942 24.00000029 0 42.00000029-18 42.00000029-41.99999942z"  horiz-adv-x="1024" />

    
    <glyph glyph-name="xiala1-copy" unicode="&#59271;" d="M772.92959 137.52050599999995c-13.546965-13.546965-31.910628-26.190798-49.37116-22.277231-17.460532-2.859915-33.867411 10.68705-47.414376 22.277231l-419.504336 421.46112c-21.3741 21.3741-21.3741 56.144642 0 77.518741 21.3741 21.3741 56.144642 21.3741 77.518742 0l390.303101-400.990151 391.356754 400.990151c21.3741 21.3741 56.144642 21.3741 77.518742 0 21.3741-21.3741 21.3741-56.144642 0-77.518741l-420.407467-421.46112z m0 0"  horiz-adv-x="1450" />

    
    <glyph glyph-name="GoodsType_pull-down" unicode="&#58881;" d="M104.2 253.10000000000002L468.8 651.8a57.377 57.377 0 0 0 43.1 19.5c16.5 0 32.2-7.1 43.1-19.5L919.6 253.10000000000002c17.8-18.8 23.3-46.2 14.1-70.4s-31.4-41.1-57.2-43.4l-728.9 0c-25.9 2.2-48.2 19-57.4 43.29999999-9.3 24.3-3.8 51.6 14 70.50000001z"  horiz-adv-x="1024" />

    
    <glyph glyph-name="xiala" unicode="&#59270;" d="M919.8 514.9L555.2 116.20000000000005a57.377 57.377 0 0 0-43.1-19.5c-16.5 0-32.2 7.1-43.1 19.5L104.4 514.9c-17.8 18.8-23.3 46.2-14.1 70.4s31.4 41.1 57.2 43.4h728.9c25.9-2.2 48.2-19 57.4-43.3 9.3-24.3 3.8-51.6-14-70.5z"  horiz-adv-x="1024" />

    
    <glyph glyph-name="jichutubiao-" unicode="&#58944;" d="M979.2 156.79999999999995L866.13333333 269.86666667a43.616 43.616 0 0 1-30.83733333 12.8H750.93333333l102.4-136.53333334H686.93333333l-68.26666666-102.4H413.86666667l-68.26666667 102.4H170.66666667l102.4 136.53333334h-84.33066667A43.616 43.616 0 0 1 157.86666667 269.86666667L44.8 156.79999999999995a24.37333333 24.37333333 0 0 1-5.87733333-24.93866667l55.264-165.87733333A36.04266667 36.04266667 0 0 1 128.37333333-58.66666667000004h767.25333334a36.04266667 36.04266667 0 0 1 34.19733333 24.65066667l55.27466667 165.856A24.37333333 24.37333333 0 0 1 979.2 156.79999999999995zM530.13333333 788.928a19.60533333 19.60533333 0 0 1-27.73333333 0L253.00266667 539.5306666700001a5.74933333 5.74933333 0 0 1 4.064-9.80266667h156.8v-280.032a27.17866667 27.17866667 0 0 1 27.17866666-27.17866667h150.4A27.17866667 27.17866667 0 0 1 618.66666667 249.69600000000003V529.7280000000001h156.8a5.74933333 5.74933333 0 0 1 4.064 9.80266667z"  horiz-adv-x="1024" />

    
    <glyph glyph-name="shuaxin-copy" unicode="&#59272;" d="M960 480V704l-73.056-73.056a447.712 447.712 0 0 1-373.6 201.088C265.92 832.032 65.312 631.456 65.312 384S265.92-64.03200000000004 513.344-64.03200000000004a448.064 448.064 0 0 1 415.232 279.488 38.368 38.368 0 1 1-71.136 28.896 371.36 371.36 0 0 0-344.096-231.584c-205.024 0-371.232 166.208-371.232 371.232S308.32 755.232 513.344 755.232c132.448 0 251.936-70.08 318.016-179.84L736 480h224z"  horiz-adv-x="1024" />

    
    <glyph glyph-name="renyuanjiance" unicode="&#58880;" d="M779.46622064 378.37872500000003A283.847618 283.847618 0 0 1 901.55198564 611.771682c0 156.967411-127.296597 284.228318-284.228318 284.228318S333.09534965 768.739094 333.09534965 611.771682a283.847618 283.847618 0 0 1 122.06197099-233.392957C288.60102464 313.48125400000004 170.66727064 151.56474201000003 170.66727064-37.89304400000003a40.609994 40.609994 0 0 1 81.219988 0c0 201.830539 163.605869 365.424512 365.424512 365.424511M414.30344064 611.771682a203.020227 203.020227 0 1 0 203.020227-203.032124A203.020227 203.020227 0 0 0 414.30344064 611.771682z m0 0M635.39502564 157.62025300000005m29.742195 0l8.327815 0q29.742196 0 29.742196-29.74219601l1e-8-175.49085099q0-29.742196-29.74219601-29.742195l-8.327815 0q-29.742196 0-29.74219499 29.742195l0 175.490851q0 29.742196 29.74219499 29.742196ZM798.97710165 313.790573m29.74219499 0l8.327815 0q29.742196 0 29.742195-29.742195l0-331.946697q0-29.742196-29.742195-29.742195l-8.327815 0q-29.742196 0-29.742195 29.742195l0 331.946697q0 29.742196 29.742195 29.742195ZM961.96433264 214.38025900000002m29.742196 0l8.327815 0q29.742196 0 29.742195-29.742196l0-232.536382q0-29.742196-29.74219499-29.742195l-8.32781501 0q-29.742196 0-29.742196 29.742195l0 232.536382q0 29.742196 29.742196 29.742196Z"  horiz-adv-x="1218" />

    
    <glyph glyph-name="guanli" unicode="&#59093;" d="M882.1248 415.46752a34.8928 34.8928 0 0 0-34.88256 34.88256V781.68576c0 4.8128-3.90144 8.71936-8.71936 8.71936H130.06848c-4.8128 0-8.71936-3.90144-8.71936-8.71936V-37.93920000000003c0-4.8128 3.90656-8.71936 8.71936-8.71936h314.98752c19.25632 0 34.88256-15.62624 34.88256-34.88256s-15.62112-34.88256-34.88256-34.88256H86.4768a34.8928 34.8928 0 0 0-34.88256 34.88256V825.27744A34.88768 34.88768 0 0 0 86.4768 860.16h795.648a34.88256 34.88256 0 0 0 34.87232-34.88256v-374.93248a34.88256 34.88256 0 0 0-34.87232-34.87744zM211.8144 635.63264h513.3568a34.88768 34.88768 0 0 0 34.88256-34.88256 34.88768 34.88768 0 0 0-34.88256-34.87744H211.8144a34.88768 34.88768 0 0 0 0 69.76zM217.2672 411.10528h231.0656a34.88256 34.88256 0 0 0 0-69.76h-231.0656a34.88256 34.88256 0 0 0 0 69.76zM217.2672 186.58303999999998h231.0656c19.25632 0 34.87744-15.62624 34.87744-34.88256s-15.62112-34.88256-34.87744-34.88256h-231.0656c-19.25632 0-34.87744 15.62624-34.87744 34.88256s15.62112 34.88256 34.87744 34.88256zM548.59776 411.10528h47.95904a34.88768 34.88768 0 0 0 0-69.76h-47.95904c-19.2512 0-34.87232 15.62624-34.87232 34.88256s15.62624 34.87744 34.87232 34.87744zM958.4128 130.45248000000004c0 21.25312 15.01696 38.98368 35.01568 43.19232a213.79072 213.79072 0 0 1-25.2928 66.07872 44.09856 44.09856 0 0 0-24.42752-7.36256 44.1344 44.1344 0 0 0-44.14464 44.14464c0 10.16832 3.49696 20.07552 9.96864 27.9296a213.53472 213.53472 0 0 1-82.49344 36.736 44.15488 44.15488 0 0 0-87.15264 0.2304 213.59104 213.59104 0 0 1-82.85696-36.46976 43.9552 43.9552 0 0 0 10.37312-28.42624 44.12928 44.12928 0 0 0-69.34528-36.24448 213.9136 213.9136 0 0 1-25.56928-66.39104c20.5312-3.81952 36.06528-21.80096 36.06528-43.4176 0-21.52448-15.44704-39.45984-35.84-43.3664a213.67808 213.67808 0 0 1 29.22496-71.66464 43.79136 43.79136 0 0 0 21.3248 5.49376 44.12416 44.12416 0 0 0 44.13952-44.14464 43.83744 43.83744 0 0 0-6.2464-22.63552 213.7088 213.7088 0 0 1 79.1296-33.62816 44.14976 44.14976 0 0 0 86.33856 0.22528 213.248 213.248 0 0 1 78.86336 33.93024 43.904 43.904 0 0 0-5.92896 22.10816 44.12928 44.12928 0 0 0 44.14464 44.14464c7.12704 0 14.16704-1.73056 20.50048-5.0432a213.23264 213.23264 0 0 1 28.99968 71.43936c-19.88608 4.29056-34.7904 21.98016-34.7904 43.14112z m-174.92992-94.58688c-52.2496 0-94.59712 42.3424-94.59712 94.58688s42.34752 94.60224 94.59712 94.60224c52.24448 0 94.59712-42.35264 94.59712-94.60224s-42.34752-94.58688-94.59712-94.58688zM631.43936 376.24832000000004a34.85696 34.85696 0 0 0-34.85696-34.85184H217.2416a34.85696 34.85696 0 0 0 0 69.7088h379.34592a34.85696 34.85696 0 0 0 34.85184-34.85696z"  horiz-adv-x="1024" />

    
    <glyph glyph-name="shouye" unicode="&#58907;" d="M798.034688-128h-198.309922c-20.789992 0-36.781986 15.992994-36.781986 36.782986V225.437862H449.394824v-316.654876c0-20.789992-15.992994-36.782986-36.782985-36.782986h-195.109924c-60.772976 0-110.349957 49.576981-110.349957 110.349957V305.39983099999995h-20.789992C38.381985 305.40083100000004 0 343.783816 0 391.760797c0 22.389991 7.995997 43.180983 23.988991 59.173977L396.618845 845.95362c60.771976 63.969975 161.525937 67.168974 227.095911 6.396997 1.599999-3.198999 3.197999-4.797998 6.396998-6.396997l372.629854-395.019846c33.583987-33.583987 31.984988-87.958966-1.599999-121.543953-15.992994-15.991994-38.381985-23.988991-60.771976-23.98899h-31.985988V-17.650042999999982c0-60.771976-49.576981-110.348957-110.348957-110.348957z m-159.926937 73.565971h159.926937c20.789992 0 38.381985 17.591993 38.381985 38.382985V342.18481599999996c0 20.789992 15.992994 36.782986 36.783986 36.782986h68.767973c4.797998 0 9.595996 3.197999 11.194996 7.995997 1.599999 4.797998 1.599999 9.595996-3.198999 14.392994l-374.227854 393.419847c-33.584987 35.183986-87.959966 36.782986-123.143952 3.198998-1.598999 0-3.197999-1.599999-3.197999-3.198998l-372.629854-393.419847c-4.796998-4.796998-4.796998-12.793995 0-17.591993 3.199999-3.197999 6.397998-3.197999 9.595996-3.197999h59.172977c20.789992 0 36.782986-15.992994 36.782986-36.782985v-359.83486c0-20.789992 17.591993-38.382985 38.382985-38.382985h158.326938V225.437862c0 41.580984 33.584987 73.565971 73.565971 73.565971h113.547956c41.580984 0 73.566971-33.583987 73.566971-73.565971l-1.599999-279.871891z"  horiz-adv-x="1027" />

    
    <glyph glyph-name="yingyongchengxu" unicode="&#58903;" d="M365.27104 298.07615999999996a60.76416 60.76416 0 0 0 60.76416-60.7744v-243.08736A60.7744 60.7744 0 0 0 365.27104-66.55999999999995H122.20416C88.64768-66.55999999999995 61.44-39.35231999999996 61.44-5.785600000000045v243.08736c0 33.5616 27.20768 60.7744 60.76416 60.7744h243.06688z m486.12864 0a60.76416 60.76416 0 0 0 60.76928-60.7744v-243.08736A60.7744 60.7744 0 0 0 851.39968-66.55999999999995h-243.06176c-33.5616 0-60.76928 27.20768-60.76928 60.7744v243.08736a60.7744 60.7744 0 0 0 60.76928 60.7744h243.06176z m-516.51072-60.7744H152.59136a30.38208 30.38208 0 0 1-29.9008-24.91904l-0.4864-5.46816v-182.31808a30.3872 30.3872 0 0 1 24.91392-29.9008l5.47328-0.48128h182.2976a30.38208 30.38208 0 0 1 29.9008 24.91392l0.48128 5.46816v182.3232a30.3872 30.3872 0 0 1-30.38208 30.38208z m486.12864 0H638.72a30.38208 30.38208 0 0 1-29.9008-24.91904l-0.48128-5.46816v-182.31808a30.3872 30.3872 0 0 1 24.91392-29.9008l5.46816-0.48128h182.2976a30.38208 30.38208 0 0 1 29.9008 24.91392l0.48128 5.46816v182.3232a30.3872 30.3872 0 0 1-30.38208 30.38208z m-48.18944 579.46624l171.90912-171.86816a60.7744 60.7744 0 0 0 0-85.9904l-171.90912-171.86304c-23.72608-23.72608-62.19264-23.72608-85.91872 0l-171.90912 171.86304a60.7744 60.7744 0 0 0 0 85.9904l171.90912 171.86816c23.72608 23.72096 62.19264 23.72096 85.91872 0z m-407.55712-32.512c33.5616 0 60.76416-27.2128 60.76416-60.7744v-243.09248c0-33.5616-27.20256-60.7744-60.76416-60.7744H122.20416C88.64768 419.61984 61.44 446.83264 61.44 480.39424V723.4816c0 33.5616 27.20768 60.7744 60.76416 60.7744h243.06688z m343.0912-31.96928L579.5328 623.45216a30.3872 30.3872 0 0 1-3.584-38.8352l3.52256-4.1984 128.88576-128.896a30.38208 30.38208 0 0 1 38.76864-3.52256l4.2496 3.52256 128.82944 128.90112a30.3872 30.3872 0 0 1 3.584 38.77376l-3.52256 4.2496-128.88576 128.83968a30.38208 30.38208 0 0 1-43.02336 0z m-373.47328-28.80512H152.59136a30.38208 30.38208 0 0 1-29.9008-24.91904l-0.4864-5.46816v-182.31808a30.3872 30.3872 0 0 1 24.91392-29.9008l5.47328-0.4864h182.2976a30.38208 30.38208 0 0 1 29.9008 24.91904l0.48128 5.46816v182.3232a30.3872 30.3872 0 0 1-30.38208 30.38208z"  horiz-adv-x="1024" />

    
    <glyph glyph-name="zhudongfenxi" unicode="&#58882;" d="M265.216-24.347999999999956a41.472 41.472 0 0 0-41.415 42.211V233.47199999999998a42.155 42.155 0 1 0 83.513 0v-215.609a42.098 42.098 0 0 0-42.098-42.211z m207.701 0a41.472 41.472 0 0 0-41.358 42.211V359.30999999999995a42.098 42.098 0 0 0 83.513 0v-340.764a42.098 42.098 0 0 0-42.098-42.894z m207.759 0a41.472 41.472 0 0 0-41.359 42.211v149.96a42.098 42.098 0 0 0 83.513 0v-149.96a42.098 42.098 0 0 0-42.098-42.211z m207.758 0a41.472 41.472 0 0 0-41.415 42.211v276.48a42.155 42.155 0 1 0 83.57 0v-279.95a42.098 42.098 0 0 0-42.098-38.685zM210.66 393.899a41.415 41.415 0 0 0-33.792 16.554 42.212 42.212 0 0 0 10.353 58.767l300.203 231.537a42.724 42.724 0 0 0 51.769 0l138.07-112.64 222.947 185.97a41.756 41.756 0 0 0 53.817-63.602L706.219 501.703a41.358 41.358 0 0 0-53.135 0l-138.012 113.38-276.139-212.196a42.724 42.724 0 0 0-28.273-8.988zM927.118 559.104a42.098 42.098 0 0 0-42.098 41.472v116.11H767.66a42.155 42.155 0 0 0 0 83.627h159.46a42.098 42.098 0 0 0 42.097-41.415v-158.322a42.098 42.098 0 0 0-42.098-41.529z"  horiz-adv-x="1080" />

    


  </font>
</defs>
</svg>
